<!DOCTYPE svg PUBLIC "-//W3C//DTD SVG 1.1//EN" "http://www.w3.org/Graphics/SVG/1.1/DTD/svg11.dtd">
<!-- Uploaded to: SVG Repo, www.svgrepo.com, Transformed by: SVG Repo Mixer Tools -->
<svg width="800px" height="800px" viewBox="-1.6 -1.6 19.20 19.20" xmlns="http://www.w3.org/2000/svg" fill="none" stroke="#000000" stroke-width="0.00016" transform="matrix(-1, 0, 0, -1, 0, 0)rotate(180)">
<g id="SVGRepo_bgCarrier" stroke-width="0"/>
<g id="SVGRepo_tracerCarrier" stroke-linecap="round" stroke-linejoin="round" stroke="#CCCCCC" stroke-width="0.032"/>
<g id="SVGRepo_iconCarrier">
<path fill="#ffffff" d="M16 8.25a.75.75 0 01-1.5 0V5.761l-4.176 4.971a.75.75 0 01-.938.174L5.38 8.68l-4.1 4.1a.75.75 0 01-1.06-1.06l4.5-4.5a.75.75 0 01.894-.126l3.96 2.2L13.6 4.5H10.75a.75.75 0 010-1.5h4.5a.75.75 0 01.75.75v4.5z"/>
</g>
</svg>